<svg id="Gear" xmlns="http://www.w3.org/2000/svg" viewBox="0 0 64 64"><defs><style>.cls-2{fill:#2e58ff}</style></defs><path d="M62 36v-8a2 2 0 0 0-2-2h-1.85a4 4 0 0 1-3.72-2.55c-.16-.42-.33-.84-.52-1.25a4 4 0 0 1 .82-4.45L56 16.44a2 2 0 0 0 0-2.82L50.38 8a2 2 0 0 0-2.82 0l-1.31 1.27a4 4 0 0 1-4.45.82c-.41-.19-.83-.36-1.25-.52A4 4 0 0 1 38 5.85V4.27A2.07 2.07 0 0 0 36 2h-8a2 2 0 0 0-2 2v1.85a4 4 0 0 1-2.55 3.72c-.42.16-.84.33-1.25.52a4 4 0 0 1-4.45-.82L16.44 8a2 2 0 0 0-2.82 0L8 13.62a2 2 0 0 0 0 2.82l1.31 1.31a4 4 0 0 1 .82 4.45c-.19.41-.36.83-.52 1.25A4 4 0 0 1 5.85 26H4.27A2.07 2.07 0 0 0 2 28v8a2 2 0 0 0 2 2h1.85a4 4 0 0 1 3.72 2.55c.16.42.33.84.52 1.25a4 4 0 0 1-.82 4.45L8 47.56a2 2 0 0 0 0 2.82L13.62 56a2 2 0 0 0 2.82 0l1.31-1.31a4 4 0 0 1 4.45-.82c.41.19.83.36 1.25.52A4 4 0 0 1 26 58.15v1.58A2.07 2.07 0 0 0 28 62h8a2 2 0 0 0 2-2v-1.85a4 4 0 0 1 2.55-3.72 22.3 22.3 0 0 0 2.39-1.07 2 2 0 0 1 2.31.37L47.56 56a2 2 0 0 0 2.82 0L56 50.38a2 2 0 0 0 0-2.82l-1.31-1.31a4 4 0 0 1-.82-4.45c.19-.41.36-.83.52-1.25A4 4 0 0 1 58.15 38h1.58A2.07 2.07 0 0 0 62 36z" style="fill:#8bc4ff"/><path class="cls-2" d="M36 64h-8a4 4 0 0 1-4-4.27v-1.58a2 2 0 0 0-1.27-1.85c-.45-.18-.9-.36-1.35-.56a2 2 0 0 0-2.21.41l-1.31 1.31a4.1 4.1 0 0 1-5.66 0L6.54 51.8A4 4 0 0 1 5.37 49c0-3.46 4-3.85 2.89-6.35-.2-.45-.38-.9-.56-1.35A2 2 0 0 0 5.85 40H4a4 4 0 0 1-4-4v-8a4 4 0 0 1 4.27-4h1.58a2 2 0 0 0 1.85-1.27c.18-.45.36-.9.56-1.35a2 2 0 0 0-.41-2.21l-1.31-1.31a4 4 0 0 1 0-5.66l5.66-5.66a4.1 4.1 0 0 1 5.66 0l1.31 1.31a2 2 0 0 0 2.21.41c.45-.2.9-.38 1.35-.56A2 2 0 0 0 24 5.85V4a4 4 0 0 1 4-4h8a4 4 0 0 1 4 4.27v1.58a2 2 0 0 0 1.27 1.85c.45.18.9.36 1.35.56a2 2 0 0 0 2.21-.41l1.31-1.31a4.1 4.1 0 0 1 5.66 0l5.66 5.66a4 4 0 0 1 1.17 2.8c0 3.46-4 3.85-2.89 6.35.2.45.38.9.56 1.35a2 2 0 0 0 1.85 1.3H60a4 4 0 0 1 4 4v8a4 4 0 0 1-4.27 4h-1.58a2 2 0 0 0-1.85 1.27c-.18.45-.36.9-.56 1.35a2 2 0 0 0 .41 2.21l1.31 1.31a4 4 0 0 1 0 5.66l-5.66 5.66a4.1 4.1 0 0 1-5.66 0l-2.31-2.31a25.84 25.84 0 0 1-2.56 1.15A2 2 0 0 0 40 58.15V60a4 4 0 0 1-4 4zM20.59 51.57a8.42 8.42 0 0 1 3.57 1A6 6 0 0 1 28 58.15c0 1.49 0 1.78.06 1.88L36 60v-1.85a6 6 0 0 1 3.84-5.59 19.35 19.35 0 0 0 2.18-1 4 4 0 0 1 4.64.74L49 54.63 54.63 49l-1.31-1.31A6 6 0 0 1 52.09 41c.17-.38.32-.76.47-1.14A6 6 0 0 1 58.15 36 8.23 8.23 0 0 0 60 36v-8h-1.85a6 6 0 0 1-5.59-3.84c-.15-.38-.3-.76-.47-1.14a6 6 0 0 1 1.23-6.68L54.63 15 49 9.37l-1.31 1.31A6 6 0 0 1 41 11.91c-.38-.17-.76-.32-1.14-.47A6 6 0 0 1 36 5.85c0-1.49 0-1.78-.06-1.88L28 4v1.85a6 6 0 0 1-3.84 5.59c-.38.15-.76.3-1.14.47a6 6 0 0 1-6.68-1.23L15 9.37 9.37 15l1.31 1.31A6 6 0 0 1 11.91 23c-.17.38-.32.76-.47 1.14A6 6 0 0 1 5.85 28c-1.49 0-1.78 0-1.88.06L4 36h1.85a6 6 0 0 1 5.59 3.84c.15.38.3.76.47 1.14a6 6 0 0 1-1.23 6.68L9.37 49 15 54.63c1.51-1.48 2.77-3.06 5.59-3.06z"/><circle cx="32" cy="32" r="15" style="fill:#d1e7ff"/><path class="cls-2" d="M32 49a17 17 0 1 1 17-17 17 17 0 0 1-17 17zm0-30a13 13 0 1 0 13 13 13 13 0 0 0-13-13z"/></svg>